<svg xmlns="http://www.w3.org/2000/svg" viewBox="0 0 744.61 946.14"><defs><style>.cls-1{fill:#e6e6e6;}.cls-2{fill:#c9d0d2;}.cls-3{fill:#f55735;}</style></defs><title>Asset 2</title><g id="Layer_2" data-name="Layer 2"><g id="Layer_1-2" data-name="Layer 1"><path class="cls-1" d="M372.3,0c-51.9,0-94.37,94.27-94.37,146.18V721.63a25.9,25.9,0,0,0,25.9,25.9h0a25.9,25.9,0,0,0,25.9-25.9v-63a27.17,27.17,0,0,1,27.09-27.09h30.95a27.17,27.17,0,0,1,27.09,27.09v63a25.9,25.9,0,0,0,25.9,25.9h0a25.9,25.9,0,0,0,25.9-25.9V146.18C466.67,94.27,424.21,0,372.3,0Z"/><rect class="cls-2" x="320.98" y="124.14" width="102.64" height="34.51" rx="7.64" ry="7.64"/><path class="cls-2" d="M531.84,301l112.11,161.2L741.23,602.1a18.71,18.71,0,0,1-15.36,29.4H510.8a13,13,0,0,1-13-13V311.7C497.76,293.38,521.37,286,531.84,301Z"/><path class="cls-2" d="M212.77,301,100.66,462.22,3.38,602.1a18.71,18.71,0,0,0,15.36,29.4H233.81a13,13,0,0,0,13-13V311.7C246.85,293.38,223.24,286,212.77,301Z"/><rect class="cls-2" x="358.64" y="655.78" width="27.32" height="132.37" rx="6.05" ry="6.05"/><path class="cls-3" d="M288,946.14a10.08,10.08,0,0,1-10.08-10.08V796.49a10.08,10.08,0,0,1,20.16,0V914.62l67.78-56.11a10.08,10.08,0,0,1,12.86,0l67.77,56.11V796.49a10.08,10.08,0,0,1,20.16,0V936.06a10.08,10.08,0,0,1-16.51,7.77l-77.86-64.46-77.86,64.46A10.08,10.08,0,0,1,288,946.14Z"/></g></g></svg>