<svg xmlns="http://www.w3.org/2000/svg" viewBox="0 0 746.79 746.79"><defs><style>.cls-1{fill:#e6e6e6;}.cls-2{fill:#c9d0d2;}.cls-3{fill:#f55735;}</style></defs><title>Asset 1</title><g id="Layer_2" data-name="Layer 2"><g id="Layer_1-2" data-name="Layer 1"><path class="cls-1" d="M731.57,15.22c-36.7-36.7-133.39-.07-170.09,36.63L154.58,458.76a25.9,25.9,0,0,0,0,36.63h0a25.9,25.9,0,0,0,36.63,0l44.58-44.58a27.17,27.17,0,0,1,38.31,0L296,472.69A27.17,27.17,0,0,1,296,511L251.4,555.58a25.9,25.9,0,0,0,0,36.63h0a25.9,25.9,0,0,0,36.63,0L694.94,185.3C731.64,148.6,768.27,51.92,731.57,15.22Z"/><rect class="cls-2" x="580.27" y="97.94" width="102.64" height="34.51" rx="7.64" ry="7.64" transform="translate(266.44 -412.86) rotate(45)"/><path class="cls-2" d="M631.52,340.87,596.81,534.13l-30.12,167.7A18.71,18.71,0,0,1,535,711.75L383,559.68a13,13,0,0,1,0-18.45l216.9-216.9C612.83,311.38,634.76,322.84,631.52,340.87Z"/><path class="cls-2" d="M405.91,115.26,212.65,150,45,180.1A18.71,18.71,0,0,0,35,211.75L187.1,363.82a13,13,0,0,0,18.45,0l216.9-216.9C435.41,134,423.95,112,405.91,115.26Z"/><rect class="cls-2" x="207.41" y="459.53" width="27.32" height="132.37" rx="6.05" ry="6.05" transform="translate(436.49 -2.34) rotate(45)"/><path class="cls-3" d="M3,624.63a10.08,10.08,0,0,1,0-14.26l98.69-98.69A10.08,10.08,0,1,1,115.9,526L32.37,609.48l87.6,8.25a10.08,10.08,0,0,1,9.09,9.09l8.25,87.6,83.53-83.53a10.08,10.08,0,0,1,14.26,14.26l-98.69,98.69a10.08,10.08,0,0,1-17.17-6.18L109.77,637,9.14,627.54A10.08,10.08,0,0,1,3,624.63Z"/></g></g></svg>